# xmcd
#
# Track frame offsets:
#	150
#	18911
#	37571
#	49605
#	65835
#	88542
#	98303
#	112854
#	125635
#	148713
#
# Disc length: 2273 seconds
#
# Revision: 0
# Processed by: cddbd v1.5.1PL0 Copyright (c) Steve Scherf et al.
# Submitted via: dBpowerAMP V4.0
#
DISCID=7308df0a
DTITLE=Wild Bunch - Power of the Night
DYEAR=2002
DGENRE=Country
TTITLE0=Dear Joline
TTITLE1=That´s All I want you to be
TTITLE2=Power of the Night
TTITLE3=Hey , Ho , Cheerio
TTITLE4=Beyond the Horizon
TTITLE5=Love Me
TTITLE6=Please tell me 
TTITLE7=Rock´N Roll Girl
TTITLE8=Try your Luck
TTITLE9=I will allways Love you
EXTD=
EXTT0=
EXTT1=
EXTT2=
EXTT3=
EXTT4=
EXTT5=
EXTT6=
EXTT7=
EXTT8=
EXTT9=
PLAYORDER=
